<?xml version="1.0" standalone="no"?>
<!DOCTYPE svg PUBLIC "-//W3C//DTD SVG 20010904//EN"
 "http://www.w3.org/TR/2001/REC-SVG-20010904/DTD/svg10.dtd">
<svg version="1.0" xmlns="http://www.w3.org/2000/svg"
 width="1920.000000pt" height="1080.000000pt" viewBox="0 0 1920.000000 1080.000000"
 preserveAspectRatio="xMidYMid meet">
<metadata>
Created by potrace 1.16, written by Peter Selinger 2001-2019
</metadata>
<g transform="translate(0.000000,1080.000000) scale(0.100000,-0.100000)"
fill="#000000" stroke="none">
<path d="M2 8098 l3 -2701 60 -13 c33 -7 114 -18 180 -25 66 -6 123 -17 127
-23 5 -6 8 -7 8 -1 0 14 110 12 136 -2 15 -9 24 -9 32 -1 8 8 15 8 25 -1 8 -6
44 -14 79 -16 36 -3 76 -8 89 -11 13 -4 35 -7 47 -8 13 -2 27 -7 30 -12 4 -5
34 -9 67 -8 96 2 101 2 87 16 -27 27 -17 28 168 14 25 -2 52 -6 60 -9 8 -3 54
-11 102 -18 48 -6 85 -16 82 -20 -3 -5 -38 -7 -79 -5 -41 2 -75 0 -75 -5 0 -5
26 -9 58 -9 31 0 77 -5 101 -11 49 -11 85 5 37 17 -14 3 -26 11 -26 16 0 12
123 4 230 -14 36 -6 153 -12 260 -12 173 -1 196 1 208 16 7 10 19 15 29 11 23
-9 77 -8 93 2 8 5 18 2 26 -9 9 -13 14 -14 19 -5 13 20 343 -2 453 -30 21 -5
71 -12 112 -16 144 -12 167 -16 340 -46 30 -5 97 -12 148 -15 57 -4 92 -11 92
-18 0 -6 4 -5 9 3 7 11 13 12 23 4 30 -24 199 -41 266 -27 18 3 38 2 45 -4 6
-5 26 -13 43 -16 24 -5 33 -3 38 9 5 14 9 14 41 1 31 -13 35 -13 35 0 0 8 5
12 11 9 5 -4 20 -8 32 -10 12 -2 40 -7 61 -11 34 -6 39 -5 33 9 -5 14 0 17 26
17 18 0 52 -7 76 -16 31 -11 97 -16 234 -18 104 -2 192 -8 196 -13 3 -4 26 -9
50 -10 24 -2 55 -10 69 -19 18 -12 42 -15 91 -13 76 4 231 -9 246 -21 6 -5 44
-11 85 -14 86 -7 133 -13 174 -22 19 -4 31 -2 37 7 6 11 9 11 9 1 0 -10 4 -10
19 0 15 9 25 9 47 -1 22 -10 29 -10 35 1 8 12 13 4 10 -14 -1 -10 35 -9 69 1
14 4 42 3 63 -2 32 -8 40 -7 52 9 12 17 11 20 -18 26 -18 3 -75 10 -127 13
-52 4 -99 11 -105 15 -21 14 -203 48 -330 60 -49 5 -103 11 -120 14 -16 2 -55
7 -85 11 -112 12 -320 48 -320 55 0 4 -28 8 -62 9 -76 2 -234 27 -285 44 -50
16 -57 44 -11 41 353 -23 528 -36 593 -44 44 -5 111 -8 148 -6 37 3 65 1 63
-3 -3 -4 8 -5 25 -3 16 2 31 8 34 12 8 13 197 -1 220 -16 22 -14 135 -35 148
-27 10 6 160 5 197 -1 57 -10 157 -27 180 -32 14 -2 75 -9 135 -14 61 -6 158
-14 218 -19 59 -6 110 -12 115 -14 4 -3 43 -8 86 -11 43 -4 84 -10 89 -13 15
-9 83 -22 142 -28 28 -3 72 -7 98 -10 26 -3 53 -3 59 1 6 4 32 9 57 11 72 5
87 11 99 37 8 19 21 26 56 31 25 4 58 4 73 0 16 -4 56 -7 90 -6 35 1 70 -3 82
-10 15 -10 33 -10 83 -1 86 16 206 18 220 4 18 -18 45 -14 51 7 6 23 101 38
150 23 17 -6 56 -13 86 -17 30 -3 70 -13 89 -21 44 -18 72 -18 72 1 0 20 49
20 56 0 4 -8 11 -12 16 -9 6 4 13 1 17 -5 5 -8 16 -7 40 5 29 14 41 15 86 5
30 -7 59 -19 66 -27 13 -16 44 -10 67 12 17 18 110 9 133 -12 23 -20 53 -14
58 11 2 11 8 23 14 27 7 4 7 11 -1 21 -14 16 2 27 40 27 14 0 18 5 14 15 -8
23 18 29 50 12 26 -14 27 -15 7 -21 -12 -4 -24 -13 -27 -21 -3 -8 -13 -15 -23
-15 -10 0 -25 -5 -33 -11 -13 -9 -12 -10 3 -5 12 4 17 0 17 -13 0 -20 26 -31
75 -31 34 0 79 -26 70 -41 -4 -5 5 -9 19 -9 14 0 28 5 31 10 4 6 13 7 23 1 9
-4 33 -11 53 -15 40 -7 74 -36 51 -43 -21 -8 -13 -21 19 -32 48 -17 69 -13 79
11 5 13 9 18 9 11 1 -7 7 -10 14 -7 19 7 89 -25 81 -37 -3 -6 -8 -8 -11 -5 -3
3 -11 -1 -18 -7 -19 -17 1 -49 28 -46 12 2 40 -6 62 -17 51 -26 67 -25 82 5
14 30 40 33 87 10 22 -11 36 -13 36 -6 0 6 6 2 14 -9 9 -12 11 -21 4 -25 -17
-11 10 -21 35 -13 23 8 32 10 59 12 10 1 23 12 29 24 9 17 8 24 -5 34 -13 9
-14 13 -4 17 7 3 4 6 -7 6 -11 1 -31 -6 -44 -16 -23 -16 -25 -15 -50 15 -22
25 -31 29 -58 25 -29 -5 -32 -3 -28 18 6 30 13 36 55 47 31 8 35 12 32 38 -4
35 -19 54 -42 54 -25 0 -32 11 -16 29 7 9 16 28 20 44 6 24 4 27 -18 27 -39 0
-56 -11 -56 -35 0 -31 -27 -39 -76 -23 -48 16 -50 38 -7 58 23 10 33 22 33 38
0 31 -26 39 -48 13 -15 -18 -85 -50 -122 -54 -25 -3 -31 78 -8 103 10 11 23
20 29 20 6 0 -3 12 -21 26 -28 24 -32 25 -48 11 -18 -17 -49 -7 -65 20 -4 7
-23 13 -41 13 -19 0 -52 6 -74 14 -27 10 -62 13 -102 10 -39 -4 -60 -2 -60 5
0 6 9 11 19 11 14 0 18 5 14 18 -4 17 2 18 62 18 70 -1 87 9 79 47 -4 26 -16
35 -21 19 -4 -9 -12 -8 -34 5 -16 10 -29 21 -29 25 0 4 -8 8 -17 8 -15 0 -16
2 -2 15 20 21 102 5 186 -35 83 -40 83 -40 87 13 2 20 19 27 74 27 43 0 52 -3
52 -17 1 -40 24 -53 88 -49 39 2 68 -1 78 -9 11 -8 36 -11 65 -8 33 3 66 -2
108 -18 49 -17 66 -19 88 -11 16 6 45 13 65 17 34 5 37 9 43 48 4 23 14 49 21
58 8 9 13 31 12 50 -3 29 1 34 27 43 17 5 54 20 83 33 53 24 100 25 129 1 8
-6 13 -2 18 12 7 23 -19 62 -39 58 -6 -1 -26 2 -44 6 -27 6 -31 10 -21 22 6 8
8 14 3 14 -5 1 -20 10 -33 21 -21 17 -22 23 -13 44 10 21 16 23 46 18 23 -4
42 -1 52 8 23 19 247 20 266 1 6 -6 21 -12 32 -12 12 0 30 -7 40 -15 10 -8 22
-12 27 -10 4 3 10 1 14 -5 3 -5 15 -10 25 -10 11 0 48 -11 82 -24 35 -13 82
-30 106 -37 56 -16 108 -67 116 -114 7 -34 64 -127 93 -150 7 -5 14 -20 16
-33 2 -12 13 -29 24 -37 13 -9 22 -30 27 -61 5 -42 3 -49 -20 -71 l-27 -25 23
-40 c21 -38 21 -39 2 -29 -11 6 -51 12 -90 15 -54 3 -75 9 -91 25 -11 11 -27
18 -34 15 -15 -5 -31 21 -22 36 6 10 -24 22 -36 15 -4 -3 -14 -24 -20 -45 -9
-30 -17 -40 -32 -40 -12 0 -31 -10 -44 -22 -18 -17 -36 -22 -76 -23 l-52 0 1
37 c0 29 -3 35 -13 27 -7 -6 -15 -19 -18 -30 -5 -14 -16 -19 -42 -19 -19 0
-60 -7 -90 -16 -30 -9 -67 -13 -81 -10 -58 14 -140 18 -147 7 -3 -6 5 -25 19
-41 23 -28 24 -32 10 -58 -18 -35 -18 -42 2 -42 23 0 114 -51 114 -64 1 -19
36 -87 42 -80 3 3 5 -1 5 -8 -1 -8 12 -30 28 -49 27 -30 36 -34 88 -37 38 -2
57 0 53 7 -10 16 177 1 189 -15 6 -8 30 -15 55 -18 25 -2 50 -5 55 -6 24 -6
55 1 69 15 19 19 30 19 22 0 -3 -8 -1 -15 4 -15 6 0 10 -6 10 -14 0 -8 10 -13
23 -12 16 1 21 -4 19 -16 -2 -13 4 -18 23 -18 14 0 25 -4 25 -9 0 -5 9 -7 20
-4 11 3 20 0 20 -6 0 -6 -5 -11 -11 -11 -6 0 -8 -9 -4 -20 5 -14 2 -20 -9 -20
-11 0 -16 -10 -16 -31 0 -28 -2 -30 -17 -18 -15 12 -16 12 -11 -7 5 -20 2 -21
-31 -17 -26 4 -42 0 -53 -11 -9 -9 -21 -16 -26 -16 -11 0 -11 -18 0 -35 13
-21 26 -84 17 -87 -4 -2 -10 -19 -13 -38 -4 -35 -4 -35 34 -35 44 0 62 -12 40
-25 -12 -8 -10 -10 9 -10 24 0 24 0 5 -15 -22 -17 -51 -19 -56 -5 -4 12 -93
-13 -93 -27 0 -13 -31 -43 -44 -43 -6 0 -11 -6 -11 -14 0 -8 -7 -17 -16 -20
-8 -3 -12 -11 -9 -16 4 -6 -3 -20 -15 -30 -12 -10 -19 -23 -16 -29 4 -5 2 -12
-4 -16 -5 -3 -10 -1 -10 4 0 6 -5 11 -11 11 -7 0 -18 8 -25 18 -12 15 -13 15
-14 -10 0 -15 6 -31 14 -35 7 -4 17 -18 20 -31 7 -22 7 -22 -20 3 -15 14 -30
23 -33 19 -3 -3 5 -15 19 -26 l25 -21 -35 6 c-34 6 -35 6 -10 -8 24 -14 24
-14 3 -15 -14 0 -24 -9 -32 -30 -10 -30 -10 -30 24 -27 19 3 35 0 35 -4 0 -5
-4 -9 -10 -9 -19 0 -10 -19 10 -22 12 -2 21 -7 21 -13 1 -30 59 -54 59 -24 0
4 -6 6 -14 3 -8 -3 -16 3 -19 15 -5 19 -4 19 19 5 15 -11 33 -14 54 -9 23 5
30 3 30 -8 0 -48 8 -47 -314 -47 -165 1 -501 0 -746 -2 -427 -3 -977 7 -1068
18 -25 3 -49 1 -56 -5 -12 -10 -530 -12 -1356 -7 -58 0 -193 -1 -300 -2 -107
-1 -313 1 -458 4 -197 5 -262 4 -262 -5 0 -7 -9 -6 -25 5 -14 9 -25 24 -25 33
0 9 -10 21 -22 26 -12 6 -24 16 -26 23 -3 10 10 11 61 6 40 -4 67 -3 71 4 9
14 -55 24 -112 16 -45 -6 -48 -8 -44 -31 4 -21 2 -23 -19 -18 -30 7 -198 13
-819 30 -118 3 -305 7 -415 10 -200 6 -227 6 -255 3 -46 -4 -100 4 -114 17
-19 19 -56 20 -56 1 0 -9 -7 -12 -20 -9 -11 3 -20 10 -20 17 0 6 -5 4 -10 -4
-7 -10 -10 -11 -10 -2 0 10 -31 11 -142 7 -79 -3 -222 0 -318 7 -96 6 -206 11
-243 10 -38 -1 -73 1 -79 4 -13 8 -52 12 -158 18 -41 2 -75 5 -75 6 0 0 -85 3
-190 5 -104 1 -212 8 -240 14 -27 6 -172 12 -322 15 -149 2 -280 9 -290 14
-22 11 -116 21 -271 28 -64 3 -124 8 -132 11 -8 3 -49 4 -91 3 -108 -2 -251
19 -266 39 -7 9 -13 12 -13 7 0 -5 -6 -4 -12 2 -7 5 -58 13 -113 16 -54 4
-117 11 -140 16 -22 4 -92 11 -155 15 -244 14 -296 17 -317 16 -68 -5 -116 -3
-183 4 -41 4 -100 8 -130 8 -30 1 -57 4 -60 8 -3 5 -31 10 -63 13 l-57 6 0
-2135 0 -2135 9600 0 9600 0 -2 2468 -3 2467 -30 5 c-35 6 -43 27 -18 46 17
13 17 13 -2 15 -11 1 -23 1 -27 0 -5 0 -8 4 -8 9 0 6 -7 10 -16 10 -9 0 -14
-6 -11 -14 4 -9 -2 -12 -18 -10 -13 1 -26 -4 -29 -11 -3 -9 0 -12 10 -8 7 3
14 1 14 -5 0 -15 -26 -22 -39 -9 -8 8 -11 8 -11 -2 0 -14 -28 -40 -42 -41 -5
0 -8 6 -8 14 0 8 -7 17 -16 20 -25 10 -54 7 -51 -5 1 -6 -13 -17 -32 -23 -19
-7 -38 -22 -42 -34 -5 -12 -13 -22 -19 -22 -5 0 -10 -6 -10 -14 0 -20 -32 -28
-64 -17 -31 12 -33 3 -10 -37 15 -25 15 -25 0 -8 -13 17 -21 18 -44 10 -15 -6
-26 -16 -25 -22 2 -7 -7 -11 -20 -9 -14 1 -22 -3 -22 -13 0 -8 -7 -21 -15 -28
-13 -10 -13 -14 4 -27 11 -8 16 -16 10 -16 -24 -3 -51 4 -66 18 -14 13 -20 13
-33 3 -8 -7 -12 -16 -9 -21 3 -5 0 -9 -6 -9 -7 0 -9 7 -6 16 4 12 1 14 -14 9
-14 -4 -20 -2 -20 8 0 16 -27 30 -41 21 -5 -3 -9 -1 -9 4 0 15 -42 23 -57 11
-6 -6 -18 -7 -24 -3 -8 4 -9 3 -5 -4 10 -16 -5 -14 -28 3 -23 18 -56 20 -56 4
0 -6 -7 -8 -16 -5 -18 7 -58 -17 -46 -28 4 -5 -4 -6 -18 -5 -16 2 -34 -5 -48
-19 -12 -12 -30 -22 -39 -21 -14 0 -13 2 5 9 30 13 28 20 -7 20 -22 0 -30 -6
-34 -22 -6 -21 -12 -23 -64 -22 -32 1 -66 4 -75 8 -10 5 -27 1 -41 -9 -16 -10
-34 -14 -51 -9 -22 5 -26 3 -26 -15 0 -14 -5 -19 -15 -15 -20 8 -19 -6 3 -22
10 -8 12 -13 5 -14 -7 0 -10 -7 -6 -16 5 -14 1 -15 -27 -9 -31 7 -33 6 -28
-19 5 -26 -5 -35 -17 -16 -10 16 -28 12 -22 -5 4 -8 2 -17 -4 -20 -5 -4 -3
-15 6 -28 8 -12 15 -29 15 -39 0 -13 8 -18 28 -18 29 -1 66 -23 55 -33 -3 -4
-17 -4 -29 -1 -15 4 -24 2 -24 -5 0 -6 -8 -11 -17 -11 -15 0 -16 2 -3 10 13 9
13 11 0 20 -22 14 -41 12 -62 -7 -15 -13 -21 -14 -27 -5 -4 7 -14 11 -22 9 -8
-2 -11 -2 -6 0 4 3 5 9 1 14 -3 5 0 9 6 9 6 0 8 5 4 11 -3 6 0 16 7 21 11 7
11 11 1 15 -6 2 -10 9 -6 14 7 12 -21 40 -38 36 -7 -2 -10 -2 -5 0 17 10 5 23
-21 23 -15 0 -33 5 -39 11 -14 14 -36 1 -29 -17 3 -8 -1 -14 -10 -14 -8 0 -12
5 -9 11 4 6 -2 13 -13 16 -11 2 -23 14 -25 25 -3 11 -9 18 -14 15 -4 -3 -17 1
-28 9 -16 12 -17 14 -2 14 9 0 17 5 17 10 0 6 -9 10 -19 10 -11 0 -26 9 -35
21 -10 15 -20 19 -34 15 -13 -5 -24 -1 -29 8 -10 19 -85 25 -91 8 -2 -7 -18
-12 -35 -12 -18 0 -40 -7 -50 -14 -10 -8 -27 -12 -37 -9 -14 4 -20 0 -20 -11
0 -9 -5 -16 -11 -16 -6 0 -8 -12 -6 -30 4 -22 1 -31 -14 -35 -22 -7 -26 -35
-4 -35 8 0 15 -7 15 -15 0 -21 -16 -19 -40 7 -19 21 -24 33 -21 51 1 5 -7 6
-18 2 -13 -4 -20 0 -24 15 -3 11 -6 24 -8 28 -4 14 -35 31 -56 32 -13 0 -23 5
-23 11 0 8 -15 10 -45 7 -27 -4 -46 -1 -48 6 -2 7 -13 5 -30 -7 -14 -9 -34
-17 -44 -17 -13 0 -14 -3 -5 -12 19 -19 14 -37 -8 -31 -12 3 -20 0 -20 -6 0
-7 -6 -11 -12 -10 -29 3 -40 -2 -34 -16 4 -11 -2 -15 -23 -15 -20 0 -34 -8
-45 -25 -16 -24 -16 -25 4 -25 11 0 20 -4 20 -10 0 -13 -43 -13 -57 1 -6 6
-28 11 -49 12 -22 0 -45 7 -53 15 -8 7 -20 10 -30 6 -9 -4 -28 -7 -43 -6 -16
1 -28 -3 -28 -8 0 -6 -9 -10 -20 -10 -11 0 -36 -7 -55 -14 -23 -10 -35 -11
-35 -4 0 6 -7 5 -17 -3 -15 -12 -16 -12 -11 3 9 21 -27 31 -46 13 -7 -8 -17
-11 -21 -7 -4 4 -5 -6 -1 -21 6 -26 5 -28 -15 -22 -19 6 -21 4 -16 -15 5 -20
4 -21 -16 -6 -35 26 -49 30 -57 16 -5 -8 -9 -9 -11 -1 -5 13 -69 -7 -69 -21 0
-4 -4 -8 -10 -8 -5 0 -10 5 -10 11 0 6 -14 24 -31 40 -17 16 -28 33 -24 39 3
5 -3 10 -14 10 -11 0 -23 4 -26 10 -4 6 -16 3 -31 -6 -13 -9 -27 -14 -31 -10
-3 3 -1 6 6 6 7 0 11 9 9 23 -2 12 -9 21 -17 19 -7 -1 -15 7 -18 18 -5 20 -23
28 -23 10 0 -5 -7 -10 -15 -10 -9 0 -12 6 -8 17 5 12 2 15 -10 10 -9 -3 -23 0
-31 8 -25 26 -85 16 -87 -14 0 -13 -2 -13 -6 -1 -11 28 -26 28 -51 -1 -23 -28
-25 -29 -43 -13 -12 11 -19 13 -19 5 0 -7 -4 -10 -8 -7 -5 3 -14 -9 -20 -27
-13 -37 -50 -67 -48 -39 1 22 -32 28 -41 6 -4 -11 0 -22 12 -30 16 -12 16 -14
2 -19 -10 -4 -14 -15 -11 -31 2 -13 1 -24 -3 -24 -10 0 -40 20 -31 20 4 0 3
12 -3 28 -19 54 -98 62 -114 11 -5 -16 -9 -18 -15 -8 -7 10 -15 7 -36 -14 -32
-32 -64 -36 -64 -7 0 24 -16 26 -28 4 -6 -11 -11 -13 -16 -5 -4 6 -2 11 3 11
6 0 11 7 11 16 0 13 -6 15 -27 10 -19 -5 -24 -4 -14 3 12 8 12 12 -2 26 -9 9
-20 23 -25 31 -9 16 -72 29 -72 14 0 -4 -13 -11 -30 -15 -52 -11 -87 -74 -57
-104 10 -10 9 -11 -5 -6 -10 4 -19 11 -19 16 -5 35 -21 59 -38 59 -28 0 -94
-69 -97 -103 -2 -17 -10 -34 -16 -39 -10 -5 -10 -10 -2 -18 18 -18 5 -48 -27
-59 -16 -5 -29 -17 -29 -25 0 -19 -16 -21 -23 -3 -4 10 -6 10 -6 0 -2 -23 -21
-14 -21 9 0 47 -21 -1 -22 -51 -1 -28 -5 -51 -9 -51 -5 0 -6 7 -3 15 4 10 0
15 -13 15 -25 0 -35 10 -24 24 5 6 12 21 15 34 6 16 3 22 -8 22 -9 0 -16 5
-16 10 0 6 -7 10 -15 10 -8 0 -15 -7 -15 -15 0 -12 -4 -13 -25 -3 -30 14 -38
8 -39 -32 -1 -21 -5 -29 -14 -25 -10 4 -11 -1 -6 -17 6 -20 5 -21 -9 -10 -20
17 -67 25 -67 12 0 -7 -6 -6 -14 2 -8 7 -12 16 -9 21 6 9 -9 9 -25 -1 -7 -5
-10 -17 -6 -28 5 -16 4 -17 -6 -4 -9 11 -13 12 -17 2 -2 -6 -9 -10 -14 -6 -5
3 -12 -2 -15 -10 -9 -25 -42 -20 -46 7 -2 14 -10 22 -24 23 -11 1 -32 9 -47
19 -18 12 -27 13 -27 5 0 -9 -10 -10 -35 -6 -26 5 -40 3 -51 -9 -9 -8 -20 -13
-25 -10 -5 4 -9 2 -9 -3 0 -4 -9 -18 -21 -30 -11 -13 -22 -31 -24 -42 -7 -38
-16 -41 -42 -15 -29 28 -48 32 -57 10 -4 -12 -10 -13 -29 -4 -19 8 -22 17 -19
40 3 23 1 28 -11 24 -8 -4 -17 1 -20 9 -4 9 -2 16 3 16 6 0 10 5 10 10 0 6 -7
10 -15 10 -8 0 -14 6 -12 13 1 6 -10 13 -24 15 -25 3 -26 5 -16 33 6 16 19 29
28 29 21 0 35 19 37 48 1 17 -3 22 -14 18 -17 -6 -19 5 -3 21 8 8 7 13 -2 19
-7 4 -14 3 -17 -4 -2 -7 -12 -12 -23 -12 -12 0 -16 5 -13 15 4 9 0 15 -9 15
-8 0 -17 5 -19 12 -5 15 -70 -2 -68 -17 1 -5 6 -9 11 -7 5 1 2 -9 -7 -23 -9
-14 -19 -23 -22 -21 -3 3 1 12 8 21 10 13 9 15 -8 15 -11 0 -22 5 -24 12 -3 8
-12 5 -28 -10 -22 -20 -22 -23 -7 -40 21 -23 21 -32 3 -32 -8 0 -17 -7 -20
-16 -3 -8 -14 -14 -23 -13 -32 3 -36 -1 -22 -18 11 -15 11 -16 0 -6 -7 6 -19
9 -26 7 -7 -3 -15 2 -18 10 -4 10 -1 13 9 9 10 -4 14 2 14 21 0 30 -17 34 -36
9 -11 -14 -13 -15 -9 -2 3 9 -1 22 -9 29 -13 10 -17 9 -22 -5 -5 -13 -9 -14
-16 -3 -7 10 -11 9 -23 -7 -38 -50 -49 -59 -53 -47 -3 11 -8 10 -21 -1 -9 -8
-29 -17 -44 -21 -35 -8 -33 -37 3 -47 21 -5 23 -7 8 -14 -10 -4 -18 -15 -18
-25 0 -17 -2 -18 -27 -4 -16 7 -34 14 -40 14 -19 0 -16 9 10 31 13 10 17 18 9
19 -7 0 -11 4 -8 9 3 5 -5 12 -19 15 -27 7 -32 20 -13 32 8 5 -2 14 -28 25
-24 11 -32 18 -20 18 18 1 18 2 2 20 -11 12 -13 21 -7 25 5 4 15 -3 22 -15 9
-17 13 -19 20 -8 5 8 9 10 9 5 0 -5 7 -3 15 4 9 7 14 19 11 26 -3 7 2 18 10
25 12 9 12 14 2 20 -8 5 -3 10 14 14 15 4 32 4 37 0 6 -3 11 -1 11 4 0 17 2
24 10 47 6 15 3 24 -11 33 -11 6 -17 16 -14 21 3 5 0 7 -8 4 -8 -3 -18 0 -22
6 -5 8 -11 8 -21 -1 -8 -6 -17 -9 -20 -6 -10 10 6 27 27 27 21 0 25 10 9 26
-18 18 19 39 67 37 24 -1 41 2 39 6 -3 4 6 20 20 37 l26 29 -24 6 c-24 6 -42
-1 -20 -8 22 -8 13 -21 -19 -28 -23 -5 -28 -10 -18 -16 7 -4 11 -11 8 -14 -4
-3 -12 1 -19 10 -10 12 -9 16 4 21 9 3 16 15 16 25 0 14 -7 19 -26 19 -14 0
-22 4 -19 10 4 6 -1 7 -11 3 -13 -5 -16 -2 -12 8 4 10 -4 19 -22 28 -26 11
-28 15 -19 41 6 16 16 27 22 25 7 -2 27 1 46 8 25 9 35 19 36 34 1 13 -3 23
-8 23 -5 0 -4 7 3 15 9 11 9 15 1 15 -7 0 1 11 16 25 21 19 24 24 11 25 -9 0
-19 4 -23 9 -3 6 55 9 142 9 275 -1 303 0 303 11 0 6 14 11 30 11 17 0 30 -5
30 -10 0 -7 7 -7 21 1 12 6 34 8 50 5 17 -3 33 0 41 8 14 13 39 10 50 -8 4 -5
17 -11 30 -12 13 -1 45 -5 71 -9 42 -6 51 -5 71 14 25 23 47 23 148 -4 59 -15
76 -11 88 19 7 19 17 21 104 24 82 3 96 1 96 -12 0 -9 7 -16 15 -16 8 0 15 5
15 10 0 6 30 10 70 10 39 0 70 -4 70 -10 0 -5 7 -7 15 -4 9 4 15 1 15 -7 0 -9
3 -10 11 -2 12 12 68 -11 82 -34 5 -8 18 -19 30 -24 20 -9 19 -9 -5 -6 -32 5
-36 -4 -11 -24 13 -11 17 -11 20 -1 3 6 11 12 19 12 9 0 12 4 9 10 -3 5 -1 10
5 10 7 0 10 -7 6 -15 -3 -8 -1 -26 4 -40 l10 -25 149 0 c110 0 151 -3 154 -12
4 -10 6 -10 6 0 1 6 14 12 30 12 16 0 32 -6 34 -12 4 -10 8 -10 15 1 6 9 17
11 33 5 13 -4 48 -7 77 -5 46 2 53 0 50 -16 -3 -15 3 -18 37 -15 22 2 76 4
120 6 l80 3 -77 -4 c-60 -3 -78 -7 -78 -18 0 -11 12 -15 40 -15 22 0 40 -4 40
-10 0 -5 18 -10 40 -10 22 0 40 5 40 10 0 6 33 10 79 10 47 0 83 5 87 11 8 13
142 2 161 -13 7 -5 43 -9 80 -8 90 3 93 2 93 -16 0 -12 10 -15 48 -13 94 5
252 -1 252 -10 0 -6 -19 -12 -42 -14 -24 -2 12 -4 80 -4 98 -1 122 2 122 13 0
9 12 14 34 14 28 0 35 4 40 25 6 23 26 36 26 16 0 -5 9 -7 20 -4 11 3 20 9 20
13 0 4 23 5 50 2 l50 -5 0 31 c0 17 -3 32 -7 35 -5 2 -2 2 5 0 8 -1 47 -3 88
-3 67 0 74 -2 74 -20 0 -15 7 -20 28 -20 61 0 108 45 86 82 -6 10 -3 9 9 -1
15 -12 17 -12 11 3 -6 16 15 21 74 16 21 -1 28 14 23 55 -1 11 7 11 249 18 85
2 161 5 168 6 17 2 15 31 -3 31 -8 0 -15 9 -15 20 0 11 4 20 10 20 5 0 7 7 3
16 -4 10 -1 15 8 13 8 -2 25 1 38 5 18 6 21 10 10 17 -12 8 -12 11 1 19 12 7
16 3 21 -23 4 -17 7 -24 8 -15 0 10 4 17 9 17 19 -3 23 2 12 16 -11 13 -8 15
19 15 17 0 31 5 31 11 0 5 4 8 9 4 12 -7 62 16 56 26 -3 4 -1 10 5 14 6 3 10
-3 10 -16 0 -16 3 -19 13 -11 7 6 24 13 38 15 35 7 82 55 82 85 0 18 4 23 19
19 11 -3 22 1 25 9 3 9 12 13 21 9 8 -3 21 0 29 6 15 13 98 31 149 33 21 1 30
5 27 14 -3 6 1 12 9 12 8 0 36 11 61 24 35 17 47 20 47 10 0 -9 11 -14 30 -14
17 0 30 -4 30 -8 0 -4 9 -8 20 -8 11 0 20 4 20 8 0 4 7 8 16 8 8 0 22 7 31 16
14 14 17 13 34 -5 11 -11 19 -25 19 -32 0 -6 7 -8 16 -5 9 3 20 6 25 6 6 0 8
4 5 9 -4 5 4 7 16 3 12 -3 17 -7 10 -10 -25 -8 -11 -21 18 -15 25 4 30 2 30
-13 0 -11 4 -15 8 -9 19 26 37 9 21 -20 -4 -5 -9 -22 -13 -36 -5 -22 -2 -27
17 -31 32 -6 47 1 40 18 -6 16 5 18 26 5 16 -10 53 8 45 21 -3 4 3 8 14 8 10
0 37 9 60 20 22 11 52 20 66 20 14 0 28 5 31 10 8 13 55 13 55 0 0 -5 7 -7 15
-4 8 4 15 13 15 20 0 16 39 34 75 34 17 0 25 -7 28 -22 l4 -23 8 23 c5 16 18
24 46 28 l39 7 0 2658 0 2659 -9600 0 -9600 0 2 -2702z m12043 -3878 l-25 -26
22 -12 c39 -18 68 -24 68 -13 0 6 6 11 14 11 18 0 27 35 13 49 -8 8 -3 11 17
11 22 0 27 -4 22 -16 -5 -13 -1 -15 24 -12 19 3 30 0 30 -8 0 -12 28 -29 43
-26 4 1 7 -2 7 -7 0 -5 15 -8 33 -7 38 2 70 -29 46 -45 -24 -15 -149 -11 -165
5 -20 20 -18 26 11 26 27 0 34 17 11 26 -14 5 -24 0 -63 -36 -9 -8 -26 -15
-38 -15 -11 -1 -25 -4 -31 -7 -5 -3 -45 -2 -89 1 -62 5 -80 9 -80 21 0 9 7 14
18 12 9 -2 17 2 17 9 0 7 9 9 24 5 25 -6 44 8 26 19 -5 3 -10 14 -9 23 0 11 2
12 6 4 7 -18 23 -4 23 21 0 18 2 19 10 7 9 -13 14 -7 11 12 0 4 6 5 15 1 13
-5 11 -10 -11 -33z m595 5 c-10 -12 22 -90 33 -78 4 3 14 0 24 -8 15 -12 16
-12 11 2 -5 13 -2 16 13 12 11 -3 19 0 19 6 0 7 -6 9 -12 5 -7 -4 -10 -4 -6 1
4 4 1 14 -7 22 -17 17 -19 33 -5 33 6 0 10 -6 10 -13 0 -7 9 -19 20 -27 11 -8
20 -25 20 -38 0 -21 2 -22 15 -12 12 10 15 10 15 -4 0 -24 18 -19 33 9 l13 25
21 -20 c22 -20 49 -28 39 -11 -7 11 22 23 35 15 14 -8 11 -24 -6 -24 -8 0 -15
-5 -15 -11 0 -6 -6 -9 -12 -6 -7 2 -25 -2 -39 -9 -15 -7 -35 -12 -45 -10 -57
11 -104 17 -141 18 -24 1 -43 6 -43 12 0 6 -5 5 -12 -2 -7 -7 -36 -12 -65 -12
-50 0 -53 1 -53 26 0 14 4 23 10 19 6 -3 10 1 10 9 0 10 9 16 21 16 17 0 19 3
10 13 -8 10 -7 19 4 33 8 10 15 15 15 11 0 -5 9 -2 21 6 24 18 65 11 49 -8z
m-930 -6 c0 -13 -21 -43 -49 -70 -42 -43 -53 -49 -92 -50 -24 -1 -63 -2 -87
-3 -48 -2 -80 18 -74 47 2 12 -3 17 -17 17 -12 0 -21 4 -21 10 0 5 7 6 17 3
10 -4 14 -2 10 4 -5 7 0 9 13 6 11 -3 17 -9 14 -14 -3 -5 0 -9 5 -9 6 0 11 8
11 17 0 14 3 13 16 -5 8 -12 21 -22 27 -22 7 0 6 4 -3 10 -8 5 -12 12 -8 15 3
4 14 -3 24 -13 11 -11 33 -21 49 -23 17 -2 36 -7 43 -12 23 -18 12 5 -19 35
-35 36 -30 45 29 51 23 2 48 9 54 15 7 7 22 12 35 12 17 0 23 -6 23 -21z"/>
<path d="M7848 4798 c18 -18 -16 -38 -46 -27 -13 5 -29 6 -35 2 -6 -3 -27 -6
-46 -6 -20 0 -42 -4 -49 -10 -8 -7 -16 -7 -20 -1 -9 11 -52 32 -72 34 -77 9
-210 10 -210 2 0 -15 26 -22 114 -33 44 -6 85 -14 91 -18 9 -8 152 -21 240
-22 22 0 45 -5 52 -11 10 -8 20 -8 36 -1 25 11 87 6 87 -8 0 -5 23 -9 50 -9
39 0 50 3 50 16 0 13 -7 15 -32 11 -38 -5 -78 10 -78 30 0 7 9 21 20 30 11 10
20 21 20 25 0 5 -41 8 -92 8 -70 0 -89 -3 -80 -12z"/>
</g>
</svg>
