<svg xmlns="http://www.w3.org/2000/svg" height="38" viewBox="0 -960 960 960" width="38"><path fill="white" d="M186.666-120q-27 0-46.833-19.833T120-186.666v-586.668q0-27 19.833-46.833T186.666-840h586.668q27 0 46.833 19.833T840-773.334v586.668q0 27-19.833 46.833T773.334-120H186.666Zm0-66.666h586.668v-130.667H636Q608.667-278 567.167-256.667q-41.5 21.334-87.167 21.334t-87.167-21.334Q351.333-278 324-317.333H186.666v130.667Zm293.498-115.333q39.836 0 72.169-23Q584.667-348 604-384h169.334v-389.334H186.666V-384H356q19.333 36 51.831 59.001 32.497 23 72.333 23ZM186.666-186.666H773.334 186.666Z"/></svg>